<?xml version="1.0" encoding="UTF-8"?>
<!DOCTYPE svg PUBLIC "-//W3C//DTD SVG 1.1//EN" "http://www.w3.org/Graphics/SVG/1.1/DTD/svg11.dtd">
<!-- Creator: CorelDRAW X7 -->
<svg xmlns="http://www.w3.org/2000/svg" xml:space="preserve" width="100px" height="94px" version="1.1" style="shape-rendering:geometricPrecision; text-rendering:geometricPrecision; image-rendering:optimizeQuality; fill-rule:evenodd; clip-rule:evenodd"
viewBox="0 0 100 94"
 xmlns:xlink="http://www.w3.org/1999/xlink">
 <defs>
  <style type="text/css">
   <![CDATA[
    .fil0 {fill:#07314A}
    .fil2 {fill:#07314A;fill-rule:nonzero}
    .fil3 {fill:#D49100;fill-rule:nonzero}
    .fil1 {fill:#E09704;fill-opacity:0.501961}
   ]]>
  </style>
 </defs>
 <g id="Layer_x0020_1">
  <metadata id="CorelCorpID_0Corel-Layer"/>
  <g id="_767479824">
   <path class="fil0" d="M92 41c-15,9 -30,18 -45,27 -6,4 -12,2 -14,-4l0 -10 7 0 0 -8 -7 0 0 -7 7 0 0 -8 -7 0 0 -7 7 0 0 -9 -7 1 0 -8c0,-4 4,-10 12,-7 15,9 30,17 46,26 5,3 6,10 1,14l0 0z"/>
   <polygon class="fil0" points="17,23 25,23 25,31 17,31 "/>
   <polygon class="fil0" points="5,23 11,23 11,29 5,29 "/>
   <polygon class="fil0" points="25,31 32,31 32,38 25,38 "/>
   <polygon class="fil0" points="8,32 14,32 14,38 8,38 "/>
   <polygon class="fil0" points="10,44 14,44 14,48 10,48 "/>
   <polygon class="fil0" points="28,49 33,49 33,54 28,54 "/>
   <polygon class="fil0" points="14,19 18,19 18,23 14,23 "/>
   <polygon class="fil0" points="9,13 12,13 12,16 9,16 "/>
   <polygon class="fil0" points="18,11 20,11 20,13 18,13 "/>
   <polygon class="fil0" points="28,17 33,17 33,22 28,22 "/>
   <path class="fil1" d="M94 46c0,1 0,1 -1,1 -12,7 -23,14 -35,21 -5,4 -10,2 -12,-2 0,-21 0,-26 0,-45 0,-4 3,-8 9,-6 13,7 25,14 37,21 5,3 4,8 2,10l0 0z"/>
   <path class="fil1" d="M93 47c-12,7 -23,14 -35,21 -5,4 -10,2 -12,-2 0,-21 0,-26 0,-45 0,-4 3,-8 9,-6 13,7 25,14 37,21 4,2 5,8 1,11l0 0z"/>
   <g id="_910161744">
    <path class="fil2" d="M0 80l4 0c1,0 1,0 2,1 0,0 1,0 1,0 1,1 1,2 1,2 1,1 1,2 1,3 0,1 0,1 -1,2 0,1 0,1 -1,2 0,0 -1,0 -1,1 -1,0 -1,0 -2,0l-4 0 0 -11 0 0zm2 2l0 7 2 0c0,0 1,0 1,0 0,0 1,0 1,-1 0,0 0,0 0,-1 0,0 1,-1 1,-1 0,-1 -1,-2 -1,-2 0,-1 0,-1 0,-1 -1,-1 -1,-1 -1,-1 -1,0 -1,0 -2,0l-1 0 0 0z"/>
    <path id="_1" class="fil2" d="M11 82l0 -2 2 0 0 2 -2 0zm0 9l0 -8 2 0 0 8 -2 0z"/>
    <path id="_2" class="fil2" d="M15 91l2 1c0,0 0,0 0,0 0,0 1,0 1,0 1,0 1,0 1,0 0,0 1,0 1,0 0,-1 0,-1 0,-1l0 -1c-1,0 -2,1 -3,1 -1,0 -1,-1 -2,-2 0,0 -1,-1 -1,-2 0,-1 1,-2 1,-3 1,-1 2,-1 3,-1 0,0 1,0 2,1l0 -1 2 0 0 7c0,1 0,2 -1,2 0,0 0,1 0,1 0,0 -1,0 -1,1 -1,0 -1,0 -2,0 -1,0 -2,0 -3,-1 0,0 0,-1 0,-2 0,0 0,0 0,0l0 0zm1 -4c0,1 1,1 1,2 0,0 1,0 1,0 0,0 1,0 1,0 1,-1 1,-1 1,-2 0,-1 0,-1 -1,-2 0,0 0,0 -1,0 0,0 -1,0 -1,0 0,0 -1,1 -1,2z"/>
    <path id="_3" class="fil2" d="M24 82l0 -2 2 0 0 2 -2 0zm0 9l0 -8 2 0 0 8 -2 0z"/>
    <path id="_4" class="fil2" d="M31 83l0 2 -1 0 0 3c0,0 0,1 0,1 0,0 0,0 0,0 0,0 0,0 1,0 0,0 0,0 0,0l1 2c-1,0 -1,0 -2,0 0,0 -1,0 -1,0 0,0 0,-1 -1,-1 0,0 0,0 0,0 0,-1 0,-1 0,-2l0 -3 -1 0 0 -2 1 0 0 -1 2 -1 0 2 1 0 0 0z"/>
    <path id="_5" class="fil2" d="M34 86l-1 -1c0,-1 0,-1 1,-1 0,-1 1,-1 2,-1 1,0 1,0 2,0 0,1 1,1 1,1 0,0 0,1 0,2l0 2c0,1 0,1 0,2 0,0 0,0 0,1l-1 0c-1,0 -1,-1 -1,-1 0,0 0,0 0,0 0,0 0,1 -1,1 0,0 -1,0 -1,0 -1,0 -1,0 -2,-1 0,0 -1,-1 -1,-1 0,-1 1,-1 1,-1 0,-1 0,-1 1,-1 0,0 0,-1 1,-1 1,0 2,0 2,0l0 0c0,-1 0,-1 0,-1 0,0 -1,0 -1,0 -1,0 -1,0 -1,0 0,0 0,0 -1,1l0 0zm3 1c0,0 -1,0 -1,0 -1,1 -1,1 -1,1 0,0 -1,0 -1,1 0,0 1,0 1,0 0,0 0,1 1,1 0,0 0,-1 1,-1 0,0 0,0 0,0 0,-1 0,-1 0,-1l0 -1z"/>
    <polygon id="_6" class="fil2" points="41,91 41,80 43,80 43,91 "/>
    <path class="fil3" d="M49 80l5 0c0,0 1,0 1,0 1,0 1,1 1,1 1,0 1,0 1,1 0,0 1,0 1,1 0,0 -1,1 -1,1 0,1 0,1 -1,1 1,0 1,1 2,1 0,1 0,1 0,2 0,0 0,1 0,1 0,1 -1,1 -1,1 -1,0 -1,1 -2,1 0,0 -1,0 -2,0l-4 0 0 -11 0 0zm2 2l0 2 2 0c1,0 1,0 1,0 1,0 1,0 1,0 0,0 1,0 1,-1 0,0 -1,0 -1,-1 0,0 0,0 -1,0 0,0 0,0 -1,0l-2 0zm0 4l0 3 2 0c1,0 2,0 2,0 0,0 0,0 1,0 0,-1 0,-1 0,-1 0,-1 0,-1 0,-1 0,0 -1,-1 -1,-1 0,0 -1,0 -2,0l-2 0 0 0z"/>
    <path id="_1_0" class="fil3" d="M67 87l2 1c-1,1 -1,2 -2,2 -1,1 -1,1 -3,1 -1,0 -2,-1 -3,-1 -1,-1 -1,-3 -1,-4 0,-2 0,-3 1,-4 1,-1 2,-2 4,-2 1,0 2,1 3,1 0,1 0,1 1,2l-2 1c-1,-1 -1,-1 -1,-2 -1,0 -1,0 -2,0 0,0 -1,0 -1,1 -1,0 -1,1 -1,2 0,2 0,3 1,3 0,1 1,1 1,1 1,0 1,0 2,0 0,-1 1,-1 1,-2l0 0z"/>
    <path id="_2_1" class="fil3" d="M72 86l-2 -1c1,-1 1,-1 1,-1 1,-1 2,-1 3,-1 0,0 1,0 2,0 0,1 0,1 0,1 1,0 1,1 1,2l0 2c0,1 0,1 0,2 0,0 0,0 0,1l-2 0c0,0 0,-1 0,-1 0,0 0,0 0,0 0,0 -1,1 -1,1 -1,0 -1,0 -1,0 -1,0 -2,0 -2,-1 -1,0 -1,-1 -1,-1 0,-1 0,-1 0,-1 1,-1 1,-1 1,-1 1,0 1,-1 2,-1 1,0 1,0 2,0l0 0c0,-1 0,-1 0,-1 -1,0 -1,0 -2,0 0,0 0,0 0,0 -1,0 -1,0 -1,1l0 0zm3 1c0,0 -1,0 -1,0 -1,1 -1,1 -2,1 0,0 0,0 0,1 0,0 0,0 0,0 1,0 1,1 1,1 1,0 1,-1 1,-1 0,0 1,0 1,0 0,-1 0,-1 0,-1l0 -1z"/>
    <path id="_3_2" class="fil3" d="M81 91l-2 0 0 -8 2 0 0 1c0,0 0,-1 0,-1 1,0 1,0 1,0 1,0 1,0 2,0l-1 2c0,0 -1,0 -1,0 0,0 0,0 -1,0 0,0 0,0 0,1 0,0 0,1 0,2l0 3 0 0z"/>
    <path id="_4_3" class="fil3" d="M92 91l-2 0 0 -1c-1,0 -1,0 -1,1 -1,0 -1,0 -2,0 -1,0 -1,0 -2,-1 -1,-1 -1,-2 -1,-3 0,-1 0,-2 1,-3 1,-1 1,-1 2,-1 1,0 2,0 3,1l0 -4 2 0 0 11 0 0zm-6 -4c0,1 0,1 1,2 0,0 0,0 1,0 0,0 1,0 1,0 0,-1 1,-1 1,-2 0,-1 -1,-1 -1,-2 0,0 -1,0 -1,0 -1,0 -1,0 -1,0 -1,1 -1,1 -1,2l0 0z"/>
    <path id="_5_4" class="fil3" d="M93 89l2 -1c0,1 0,1 0,1 1,0 1,1 2,1 0,0 0,-1 1,-1 0,0 0,0 0,0 0,0 0,-1 0,-1 0,0 0,0 -1,0 -1,0 -2,-1 -3,-1 0,0 -1,-1 -1,-2 0,0 0,-1 1,-1 1,-1 1,-1 2,-1 1,0 2,0 3,1 0,0 1,0 1,1l-2 0c0,0 0,0 -1,0 0,0 0,-1 -1,-1 0,0 0,1 -1,1 0,0 0,0 0,0 0,0 0,0 0,0 0,1 1,1 2,1 1,0 2,1 2,1 1,0 1,1 1,1 0,1 0,2 -1,2 0,1 -1,1 -2,1 -1,0 -2,0 -3,-1 0,0 -1,-1 -1,-1l0 0z"/>
   </g>
  </g>
 </g>
</svg>
