<?xml version="1.0" standalone="no"?>
<!DOCTYPE svg PUBLIC "-//W3C//DTD SVG 20010904//EN"
 "http://www.w3.org/TR/2001/REC-SVG-20010904/DTD/svg10.dtd">
<svg version="1.0" xmlns="http://www.w3.org/2000/svg"
 width="200.000000pt" height="200.000000pt" viewBox="0 0 200.000000 200.000000"
 preserveAspectRatio="xMidYMid meet">
<metadata>
Created by potrace 1.15, written by Peter Selinger 2001-2017
</metadata>
<g transform="translate(0.000000,200.000000) scale(0.100000,-0.100000)"
fill="#000000" stroke="none">
<path d="M920 1991 c-110 -34 -199 -147 -200 -253 0 -27 -4 -48 -8 -48 -5 0
-21 13 -37 30 -36 38 -121 70 -184 70 -76 0 -139 -27 -197 -84 -109 -109 -113
-271 -10 -393 l28 -33 -49 0 c-98 0 -209 -82 -248 -183 -13 -35 -16 -64 -13
-115 11 -151 119 -258 267 -264 22 -1 41 -3 41 -4 0 -2 -12 -16 -26 -31 -15
-15 -38 -52 -52 -82 -21 -45 -24 -64 -20 -125 6 -83 29 -134 85 -187 55 -53
99 -72 179 -77 61 -4 80 -1 125 20 30 14 67 37 82 52 15 14 30 26 33 26 2 0 4
-22 4 -49 0 -73 51 -166 113 -208 59 -39 104 -53 177 -53 137 0 269 128 270
262 l0 48 51 -39 c65 -49 121 -65 204 -59 143 12 255 134 255 279 0 63 -32
148 -70 184 -17 16 -30 31 -30 35 0 3 21 7 46 8 59 2 139 39 182 83 104 105
108 272 11 383 -52 59 -106 87 -181 93 -32 3 -58 7 -58 9 0 2 12 16 26 31 52
56 69 102 69 188 0 67 -5 88 -27 130 -31 59 -67 94 -128 126 -36 19 -61 24
-125 24 -86 0 -132 -17 -187 -69 -15 -14 -30 -26 -33 -26 -3 0 -5 18 -5 40 0
108 -88 224 -193 255 -54 16 -125 18 -167 6z m150 -133 c57 -30 82 -65 88
-127 4 -41 0 -58 -22 -95 -25 -43 -26 -50 -26 -203 l0 -158 120 120 c66 66
120 128 120 138 0 28 26 72 60 100 84 71 218 28 250 -80 17 -57 5 -107 -37
-154 -25 -28 -46 -41 -73 -45 -31 -5 -57 -26 -156 -125 l-119 -119 158 0 c153
0 160 1 203 26 37 22 54 26 95 22 62 -6 97 -31 127 -89 76 -144 -82 -287 -227
-204 -41 24 -51 25 -199 25 l-157 0 118 -118 c96 -96 126 -120 161 -130 58
-15 102 -66 112 -129 6 -39 3 -55 -17 -92 -30 -55 -64 -81 -117 -88 -85 -11
-164 41 -178 119 -5 25 -34 61 -118 146 -61 61 -114 112 -118 112 -5 0 -8 -70
-8 -155 0 -146 1 -158 23 -186 30 -42 31 -135 1 -176 -74 -100 -201 -98 -271
6 -32 47 -31 113 2 166 23 38 24 48 25 200 l0 160 -120 -120 c-78 -78 -120
-127 -120 -141 0 -27 -37 -81 -73 -108 -21 -16 -43 -21 -87 -21 -63 0 -95 16
-134 69 -29 39 -29 133 0 173 27 36 81 73 108 73 14 0 63 42 141 120 l120 120
-159 0 c-147 0 -160 -2 -189 -22 -47 -34 -132 -37 -176 -6 -58 39 -76 72 -76
138 0 63 16 95 69 134 40 30 133 29 175 -1 28 -22 40 -23 186 -23 85 0 155 3
155 8 0 4 -51 57 -112 118 -85 84 -121 113 -146 118 -77 14 -130 93 -119 175
22 167 263 186 310 25 10 -34 36 -68 126 -159 63 -63 116 -115 118 -115 1 0 3
69 3 154 0 146 -1 156 -25 197 -41 73 -31 152 27 206 50 47 111 54 178 21z"/>
</g>
</svg>
