<?xml version="1.0" encoding="UTF-8"?>
<!DOCTYPE svg PUBLIC "-//W3C//DTD SVG 1.1//EN" "http://www.w3.org/Graphics/SVG/1.1/DTD/svg11.dtd">
<!-- Creator: CorelDRAW X7 -->
<svg xmlns="http://www.w3.org/2000/svg" xml:space="preserve" width="500px" height="315px" version="1.1" style="shape-rendering:geometricPrecision; text-rendering:geometricPrecision; image-rendering:optimizeQuality; fill-rule:evenodd; clip-rule:evenodd"
viewBox="0 0 500 315"
 xmlns:xlink="http://www.w3.org/1999/xlink">
 <defs>
  <style type="text/css">
   <![CDATA[
    .fil1 {fill:none}
    .fil2 {fill:#0B619C}
    .fil3 {fill:#1178BB}
    .fil0 {fill:#3497DA}
    .fil5 {fill:#0B619C;fill-rule:nonzero}
    .fil4 {fill:#3497DA;fill-rule:nonzero}
   ]]>
  </style>
    <clipPath id="id0">
     <path d="M317 101c0,-2 2,-1 0,-1l-12 -11c-1,0 -2,-1 -3,-2 -1,0 -2,-1 -2,-1 0,0 0,0 0,0l-2 -1c-2,-2 -4,-3 -7,-5l-1 -1c-10,-4 -25,-11 -34,-3 -3,2 -12,16 -15,20 -8,10 -22,31 -33,36 -23,12 -48,-24 -59,-40 -9,-14 -18,-28 -27,-42 -18,-27 -46,-61 -84,-47 -30,12 -38,55 -38,84 0,7 0,10 8,9 3,-4 3,-11 5,-16 2,-6 3,-11 5,-16 18,-46 44,-26 65,6 25,36 39,73 61,107 9,16 23,37 44,41 54,9 81,-96 114,-116 7,-4 8,-2 15,-1z"/>
    </clipPath>
     <clipPath id="id1">
      <path d="M237 193l0 -92c2,-2 3,-4 4,-5 3,-4 12,-18 15,-20 9,-8 24,-1 34,3l1 1c3,2 5,3 7,5l2 1c0,0 0,0 0,0 0,0 1,1 2,1 1,1 2,2 3,2l12 11c2,0 0,-1 0,1 -7,-1 -8,-3 -15,1 -21,13 -40,60 -65,91z"/>
     </clipPath>
     <clipPath id="id2">
      <path d="M317 101c0,-2 2,-1 0,-1l-12 -11c-1,0 -2,-1 -3,-2 -1,0 -2,-1 -2,-1 0,0 0,0 0,0l-2 -1c-2,-2 -4,-3 -7,-5l-1 -1c-10,-4 -25,-11 -34,-3 -3,2 -12,16 -15,20 -8,10 -22,31 -33,36 -23,12 -48,-24 -59,-40 -9,-14 -18,-28 -27,-42 -18,-27 -46,-61 -84,-47 -30,12 -38,55 -38,84 0,7 0,10 8,9 3,-4 3,-11 5,-16 2,-6 3,-11 5,-16 18,-46 44,-26 65,6 25,36 39,73 61,107 9,16 23,37 44,41 54,9 81,-96 114,-116 7,-4 8,-2 15,-1z"/>
     </clipPath>
 </defs>
 <g id="Layer_x0020_1">
  <metadata id="CorelCorpID_0Corel-Layer"/>
  <g id="_749135488">
   <path class="fil0" d="M317 101c0,-2 2,-1 0,-1l-12 -11c-1,0 -2,-1 -3,-2 -1,0 -2,-1 -2,-1 0,0 0,0 0,0l-2 -1c-2,-2 -4,-3 -7,-5l-1 -1c-10,-4 -25,-11 -34,-3 -3,2 -12,16 -15,20 -8,10 -22,31 -33,36 -23,12 -48,-24 -59,-40 -9,-14 -18,-28 -27,-42 -18,-27 -46,-61 -84,-47 -30,12 -38,55 -38,84 0,7 0,10 8,9 3,-4 3,-11 5,-16 2,-6 3,-11 5,-16 18,-46 44,-26 65,6 25,36 39,73 61,107 9,16 23,37 44,41 54,9 81,-96 114,-116 7,-4 8,-2 15,-1z"/>
   <g style="clip-path:url(#id0)">
    <g>
    </g>
    <g style="clip-path:url(#id1)">
     <image x="237" y="5" width="282" height="223" xlink:href="logo_Images\logo_ImgID1.png"/>
    </g>
    <g style="clip-path:url(#id2)">
    </g>
   </g>
   <path class="fil1" d="M317 101c0,-2 2,-1 0,-1l-12 -11c-1,0 -2,-1 -3,-2 -1,0 -2,-1 -2,-1 0,0 0,0 0,0l-2 -1c-2,-2 -4,-3 -7,-5l-1 -1c-10,-4 -25,-11 -34,-3 -3,2 -12,16 -15,20 -8,10 -22,31 -33,36 -23,12 -48,-24 -59,-40 -9,-14 -18,-28 -27,-42 -18,-27 -46,-61 -84,-47 -30,12 -38,55 -38,84 0,7 0,10 8,9 3,-4 3,-11 5,-16 2,-6 3,-11 5,-16 18,-46 44,-26 65,6 25,36 39,73 61,107 9,16 23,37 44,41 54,9 81,-96 114,-116 7,-4 8,-2 15,-1z"/>
   <path class="fil2" d="M255 77c9,-8 25,-2 34,3l2 1c2,1 5,3 7,4l1 1c0,0 0,0 0,0 1,1 2,1 2,2 1,0 2,1 3,2l12 10 1 2c0,0 0,0 1,1 1,1 1,0 2,1 15,10 41,60 55,79l9 12 10 9c5,3 8,5 14,6 21,2 42,-34 50,-50l13 -26c3,-11 5,-16 9,-26 1,-1 1,-2 2,-3 1,-5 3,-9 4,-14l12 -41c1,-5 4,-10 1,-14 -5,-4 -10,-1 -12,3 -14,28 -52,102 -91,76 -39,-27 -64,-126 -110,-78 -5,5 -28,34 -31,40z"/>
  </g>
  <path class="fil2" d="M154 44l-21 12c7,9 17,16 29,16l0 -23c-3,-1 -6,-3 -8,-5z"/>
  <path class="fil2" d="M166 0l0 24c3,0 6,2 7,4l21 -12c-6,-9 -16,-15 -28,-16z"/>
  <path class="fil3" d="M194 56l-21 -12c-1,2 -4,4 -7,5l0 23c12,0 22,-7 28,-16z"/>
  <path class="fil3" d="M162 24l0 -24c-12,1 -22,7 -29,16l21 12c2,-2 5,-4 8,-4z"/>
  <path class="fil0" d="M196 20l-21 12c1,1 1,3 1,4 0,2 0,3 -1,5l21 11c2,-4 4,-10 4,-16 0,-6 -2,-11 -4,-16z"/>
  <path class="fil0" d="M152 32l-20 -12c-3,5 -4,10 -4,16 0,6 1,12 4,16l20 -11c-1,-2 -1,-3 -1,-5 0,-1 0,-3 1,-4z"/>
  <g id="_752696096">
   <path class="fil4" d="M53 290c0,3 1,6 3,8 2,2 5,3 8,3 3,0 6,-1 8,-3 2,-2 3,-5 3,-8l0 -26c0,-1 1,-3 2,-4 1,-1 2,-1 4,-1l0 0c2,0 3,0 4,1 1,1 2,3 2,4l0 26c0,3 1,6 3,8 2,2 5,3 8,3 3,0 6,-1 8,-3 2,-2 3,-5 3,-8l0 -26c0,-1 1,-3 2,-4 1,-1 2,-1 4,-1l0 0c1,0 3,0 4,1 1,1 2,3 2,4l0 26c0,7 -3,12 -7,16 -4,5 -10,7 -16,7 -8,0 -13,-2 -17,-7 -4,5 -9,7 -17,7 -6,0 -11,-2 -16,-7 -4,-4 -7,-9 -7,-16l0 -26c0,-1 1,-3 2,-4 1,-1 3,-1 4,-1l0 0c2,0 3,0 4,1 1,1 2,3 2,4l0 26z"/>
   <path id="1" class="fil4" d="M138 259c1,0 3,0 4,1 1,1 1,3 1,4l0 43c0,2 0,3 -1,4 -1,1 -3,2 -4,2l0 0c-2,0 -3,-1 -5,-2 -1,-1 -1,-2 -1,-4l0 -43c0,-1 0,-3 1,-4 2,-1 3,-1 5,-1l0 0zm0 -6c-2,0 -4,-1 -5,-2 -1,-2 -2,-3 -2,-5 0,-2 1,-3 2,-5 1,-1 3,-2 5,-2 1,0 3,1 4,2 1,2 2,3 2,5 0,2 -1,3 -2,5 -1,1 -3,2 -4,2z"/>
   <path id="2" class="fil4" d="M166 307c0,2 -1,3 -2,4 -1,1 -2,2 -4,2l0 0c-1,0 -3,-1 -4,-2 -1,-1 -1,-2 -1,-4l0 -26c0,-6 2,-11 6,-16 5,-4 10,-6 16,-6 7,0 12,2 16,6 5,5 7,10 7,16l0 26c0,2 0,3 -2,4 -1,1 -2,2 -4,2l0 0c-1,0 -3,-1 -4,-2 -1,-1 -1,-2 -1,-4l0 -26c0,-3 -2,-5 -4,-7 -2,-3 -5,-4 -8,-4 -3,0 -5,1 -8,4 -2,2 -3,4 -3,7l0 26z"/>
   <path id="3" class="fil5" d="M215 293c0,4 2,7 4,10 3,3 7,4 10,4 4,0 7,-1 10,-4 3,-3 4,-6 4,-10l0 -26c0,-1 1,-1 1,-2 1,0 1,-1 2,-1l0 0c1,0 2,1 2,1 1,1 1,1 1,2l0 26c0,4 2,7 4,10 3,3 6,4 10,4 4,0 7,-1 10,-4 3,-3 4,-6 4,-10l0 -26c0,-1 0,-1 1,-2 1,0 1,-1 2,-1l0 0c1,0 2,1 2,1 1,1 1,1 1,2l0 26c0,6 -2,10 -6,14 -4,4 -8,6 -14,6 -6,0 -12,-3 -17,-9 -4,6 -10,9 -17,9 -5,0 -10,-2 -14,-6 -4,-4 -6,-8 -6,-14l0 -26c0,-1 1,-1 1,-2 1,0 2,-1 2,-1l1 0c0,0 1,1 2,1 0,1 0,1 0,2l0 26z"/>
   <path id="4" class="fil5" d="M295 245c1,0 2,0 2,1 1,0 1,1 1,2l0 22c5,-4 10,-6 14,-6 6,0 11,2 14,6 4,4 6,9 6,14l0 26c0,1 0,2 -1,2 0,1 -1,1 -2,1l0 0c-1,0 -1,0 -2,-1 0,0 -1,-1 -1,-2l0 -26c0,-4 -1,-7 -4,-10 -2,-2 -6,-4 -10,-4 -4,0 -7,2 -10,4 -2,3 -4,6 -4,10l0 26c0,1 0,2 -1,2 0,1 -1,1 -2,1l0 0c-1,0 -1,0 -2,-1 0,0 -1,-1 -1,-2l0 -62c0,-1 1,-2 1,-2 1,-1 1,-1 2,-1l0 0z"/>
   <path id="5" class="fil5" d="M365 270c-5,0 -10,2 -13,6 -4,3 -6,8 -6,13 0,1 0,2 1,4l33 -15c-5,-5 -10,-8 -15,-8zm22 9c0,0 0,1 0,2 0,1 -1,1 -2,1 -4,2 -10,5 -17,8 -9,4 -15,7 -19,9 4,5 10,8 16,8 4,0 7,-1 10,-3 4,-3 6,-5 7,-9 0,-1 1,-2 3,-2 1,0 2,0 2,1 1,1 1,2 1,3 -2,5 -5,8 -9,11 -4,3 -9,5 -14,5 -7,0 -13,-2 -18,-7 -4,-5 -7,-11 -7,-17 0,-7 3,-13 7,-18 5,-4 11,-7 18,-7 4,0 9,2 13,4 4,3 7,6 9,11z"/>
   <path id="6" class="fil5" d="M419 270c-5,0 -9,2 -13,6 -4,3 -5,8 -5,13 0,1 0,2 0,4l33 -15c-4,-5 -9,-8 -15,-8zm22 9c1,0 1,1 0,2 0,1 0,1 -1,1 -5,2 -10,5 -18,8 -8,4 -15,7 -18,9 4,5 9,8 15,8 4,0 8,-1 11,-3 3,-3 5,-5 7,-9 0,-1 1,-2 2,-2 1,0 2,0 3,1 0,1 0,2 0,3 -2,5 -5,8 -9,11 -4,3 -9,5 -14,5 -7,0 -12,-2 -17,-7 -5,-5 -7,-11 -7,-17 0,-7 2,-13 7,-18 5,-4 10,-7 17,-7 5,0 9,2 13,4 4,3 7,6 9,11z"/>
   <path id="7" class="fil5" d="M456 245c0,0 1,0 2,1 0,0 1,1 1,2l0 62c0,1 -1,2 -1,2 -1,1 -2,1 -2,1l0 0c-1,0 -2,0 -3,-1 0,0 0,-1 0,-2l0 -62c0,-1 0,-2 0,-2 1,-1 2,-1 3,-1l0 0z"/>
   <circle class="fil2" cx="137" cy="246" r="7"/>
  </g>
  <rect class="fil1" x="37" y="237" width="426.658" height="77.9416"/>
 </g>
</svg>
